<?xml version="1.0" encoding="UTF-8" standalone="no"?>
<!DOCTYPE svg PUBLIC "-//W3C//DTD SVG 1.1//EN"
 "http://www.w3.org/Graphics/SVG/1.1/DTD/svg11.dtd">
<!-- Generated by graphviz version 11.0.0 (20240428.1522)
 -->
<!-- Pages: 1 -->
<svg width="380pt" height="404pt"
 viewBox="0.00 0.00 379.88 404.00" xmlns="http://www.w3.org/2000/svg" xmlns:xlink="http://www.w3.org/1999/xlink">
<g id="graph0" class="graph" transform="scale(1 1) rotate(0) translate(4 400)">
<polygon fill="white" stroke="none" points="-4,4 -4,-400 375.88,-400 375.88,4 -4,4"/>
<!-- &#45;6041811761459706857 -->
<g id="node1" class="node">
<title>&#45;6041811761459706857</title>
<polygon fill="none" stroke="black" points="263.88,-396 126.38,-396 126.38,-360 263.88,-360 263.88,-396"/>
<text text-anchor="middle" x="195.12" y="-371" font-family="Helvetica,sans-Serif" font-size="20.00">Mul(Div, 100)</text>
</g>
<!-- &#45;4991355410223731554 -->
<g id="node2" class="node">
<title>&#45;4991355410223731554</title>
<polygon fill="none" stroke="black" points="270.62,-324 119.62,-324 119.62,-288 270.62,-288 270.62,-324"/>
<text text-anchor="middle" x="195.12" y="-299" font-family="Helvetica,sans-Serif" font-size="20.00">Div(Sum, Size)</text>
</g>
<!-- &#45;4991355410223731554&#45;&gt;&#45;6041811761459706857 -->
<g id="edge1" class="edge">
<title>&#45;4991355410223731554&#45;&gt;&#45;6041811761459706857</title>
<path fill="none" stroke="black" d="M195.12,-324.3C195.12,-331.59 195.12,-340.27 195.12,-348.46"/>
<polygon fill="black" stroke="black" points="191.63,-348.38 195.13,-358.38 198.63,-348.38 191.63,-348.38"/>
</g>
<!-- &#45;7430794888698546093 -->
<g id="node3" class="node">
<title>&#45;7430794888698546093</title>
<polygon fill="none" stroke="black" points="184.75,-252 67.5,-252 67.5,-216 184.75,-216 184.75,-252"/>
<text text-anchor="middle" x="126.12" y="-227" font-family="Helvetica,sans-Serif" font-size="20.00">Size(Index)</text>
</g>
<!-- &#45;7430794888698546093&#45;&gt;&#45;4991355410223731554 -->
<g id="edge2" class="edge">
<title>&#45;7430794888698546093&#45;&gt;&#45;4991355410223731554</title>
<path fill="none" stroke="black" d="M143.18,-252.3C151.37,-260.61 161.34,-270.72 170.34,-279.86"/>
<polygon fill="black" stroke="black" points="167.69,-282.15 177.2,-286.82 172.68,-277.24 167.69,-282.15"/>
</g>
<!-- &#45;7380541771234095660 -->
<g id="node4" class="node">
<title>&#45;7380541771234095660</title>
<polygon fill="none" stroke="black" points="168.25,-108 0,-108 0,-72 168.25,-72 168.25,-108"/>
<text text-anchor="middle" x="84.12" y="-83" font-family="Helvetica,sans-Serif" font-size="20.00">Index(ReadCSV)</text>
</g>
<!-- &#45;7380541771234095660&#45;&gt;&#45;7430794888698546093 -->
<g id="edge4" class="edge">
<title>&#45;7380541771234095660&#45;&gt;&#45;7430794888698546093</title>
<path fill="none" stroke="black" d="M89.28,-108.41C96.4,-132.5 109.34,-176.25 117.83,-204.97"/>
<polygon fill="black" stroke="black" points="114.44,-205.84 120.63,-214.44 121.15,-203.86 114.44,-205.84"/>
</g>
<!-- &#45;7686304854233220640 -->
<g id="node5" class="node">
<title>&#45;7686304854233220640</title>
<polygon fill="none" stroke="black" points="234.12,-36 128.12,-36 128.12,0 234.12,0 234.12,-36"/>
<text text-anchor="middle" x="181.12" y="-11" font-family="Helvetica,sans-Serif" font-size="20.00">ReadCSV</text>
</g>
<!-- &#45;7686304854233220640&#45;&gt;&#45;7380541771234095660 -->
<g id="edge5" class="edge">
<title>&#45;7686304854233220640&#45;&gt;&#45;7380541771234095660</title>
<path fill="none" stroke="black" d="M157.15,-36.3C145.14,-44.97 130.41,-55.6 117.33,-65.04"/>
<polygon fill="black" stroke="black" points="115.45,-62.08 109.39,-70.77 119.55,-67.75 115.45,-62.08"/>
</g>
<!-- 9111539949228666271 -->
<g id="node8" class="node">
<title>9111539949228666271</title>
<polygon fill="none" stroke="black" points="371.88,-108 186.38,-108 186.38,-72 371.88,-72 371.88,-108"/>
<text text-anchor="middle" x="279.12" y="-83" font-family="Helvetica,sans-Serif" font-size="20.00">NotNull(ReadCSV)</text>
</g>
<!-- &#45;7686304854233220640&#45;&gt;9111539949228666271 -->
<g id="edge8" class="edge">
<title>&#45;7686304854233220640&#45;&gt;9111539949228666271</title>
<path fill="none" stroke="black" d="M205.6,-36.48C217.74,-45.15 232.58,-55.75 245.74,-65.15"/>
<polygon fill="black" stroke="black" points="243.56,-67.9 253.73,-70.86 247.63,-62.2 243.56,-67.9"/>
</g>
<!-- &#45;878898343969741836 -->
<g id="node6" class="node">
<title>&#45;878898343969741836</title>
<polygon fill="none" stroke="black" points="332,-252 210.25,-252 210.25,-216 332,-216 332,-252"/>
<text text-anchor="middle" x="271.12" y="-227" font-family="Helvetica,sans-Serif" font-size="20.00">Sum(Invert)</text>
</g>
<!-- &#45;878898343969741836&#45;&gt;&#45;4991355410223731554 -->
<g id="edge3" class="edge">
<title>&#45;878898343969741836&#45;&gt;&#45;4991355410223731554</title>
<path fill="none" stroke="black" d="M252.34,-252.3C243.3,-260.63 232.28,-270.78 222.34,-279.93"/>
<polygon fill="black" stroke="black" points="220.06,-277.28 215.07,-286.63 224.8,-282.43 220.06,-277.28"/>
</g>
<!-- 4024083729740491651 -->
<g id="node7" class="node">
<title>4024083729740491651</title>
<polygon fill="none" stroke="black" points="348.38,-180 201.88,-180 201.88,-144 348.38,-144 348.38,-180"/>
<text text-anchor="middle" x="275.12" y="-155" font-family="Helvetica,sans-Serif" font-size="20.00">Invert(NotNull)</text>
</g>
<!-- 4024083729740491651&#45;&gt;&#45;878898343969741836 -->
<g id="edge6" class="edge">
<title>4024083729740491651&#45;&gt;&#45;878898343969741836</title>
<path fill="none" stroke="black" d="M274.14,-180.3C273.72,-187.59 273.22,-196.27 272.76,-204.46"/>
<polygon fill="black" stroke="black" points="269.27,-204.2 272.19,-214.38 276.25,-204.6 269.27,-204.2"/>
</g>
<!-- 9111539949228666271&#45;&gt;4024083729740491651 -->
<g id="edge7" class="edge">
<title>9111539949228666271&#45;&gt;4024083729740491651</title>
<path fill="none" stroke="black" d="M278.14,-108.3C277.72,-115.59 277.22,-124.27 276.76,-132.46"/>
<polygon fill="black" stroke="black" points="273.27,-132.2 276.19,-142.38 280.25,-132.6 273.27,-132.2"/>
</g>
</g>
</svg>
